<svg width="98" height="98" viewBox="0 0 98 98" fill="none" xmlns="http://www.w3.org/2000/svg">
<g clip-path="url(#clip0_3626_11642)">
<path d="M72.0787 33.7373H60.6982C62.3194 32.4119 63.3788 30.4237 63.3788 28.1769C63.3788 24.2167 60.1846 21 56.252 21C53.4109 21 50.9711 22.6972 49.8315 25.1057C48.6918 22.6811 46.252 21 43.4109 21C39.4783 21 36.2841 24.2167 36.2841 28.1769C36.2841 30.4399 37.3435 32.428 38.9647 33.7373H27.9053C26.3002 33.7373 25 35.0466 25 36.663V44.9229C25 46.41 26.1236 47.6385 27.5682 47.8163V72.9838H71.9502V47.8486H72.0787C73.6838 47.8486 74.984 46.5393 74.984 44.9229V36.663C74.984 35.0466 73.6838 33.7373 72.0787 33.7373ZM50.7303 28.1769C50.7303 25.1057 53.2022 22.6164 56.252 22.6164C59.3018 22.6164 61.7737 25.1057 61.7737 28.1769C61.7737 31.2481 59.2857 33.7373 56.252 33.7373H50.7303V28.1769ZM37.8892 28.1769C37.8892 25.1057 40.3612 22.6164 43.4109 22.6164C46.4607 22.6164 48.9326 25.1057 48.9326 28.1769V33.7373H43.4109C40.3612 33.7373 37.8892 31.2319 37.8892 28.1769ZM26.6051 44.9391V36.6792C26.6051 35.9518 27.183 35.3699 27.9053 35.3699H48.9326V46.2645H27.9053C27.183 46.2645 26.6051 45.6826 26.6051 44.9552V44.9391ZM48.9326 71.3836H29.1734V47.8648H48.9326V71.3836ZM70.3451 71.3836H50.5859V47.8648H70.3612V71.3836H70.3451ZM73.3788 44.9391C73.3788 45.6665 72.801 46.2484 72.0787 46.2484H50.5377V35.3537H72.0787C72.801 35.3537 73.3788 35.9357 73.3788 36.663V44.9229V44.9391Z" fill="black"/>
</g>
<circle cx="49" cy="49" r="48" stroke="black" stroke-width="2"/>
<defs>
<clipPath id="clip0_3626_11642">
<rect width="50" height="52" fill="white" transform="translate(25 21)"/>
</clipPath>
</defs>
</svg>
