<svg viewBox="0 0 40 40" fill="none" xmlns="http://www.w3.org/2000/svg">
<g clip-path="url(#clip0_2406_2422)">
<path d="M23.7012 24.6C23.5511 24.602 23.4045 24.5547 23.2838 24.4655C23.1631 24.3762 23.075 24.2499 23.0329 24.1058C22.9908 23.9617 22.9972 23.8078 23.0509 23.6676C23.1046 23.5274 23.2028 23.4087 23.3304 23.3297C23.9553 22.9397 24.4684 22.3945 24.8199 21.7472C25.1714 21.1 25.3492 20.3727 25.3361 19.6363C25.3229 18.8999 25.1193 18.1794 24.7449 17.5451C24.3706 16.9108 23.8383 16.3843 23.2 16.0168C23.1179 15.9739 23.0454 15.9148 22.9868 15.8431C22.9281 15.7714 22.8846 15.6886 22.8588 15.5997C22.833 15.5108 22.8254 15.4175 22.8366 15.3256C22.8478 15.2337 22.8774 15.1449 22.9238 15.0648C22.9701 14.9846 23.0322 14.9146 23.1063 14.859C23.1804 14.8035 23.2649 14.7635 23.3549 14.7414C23.4448 14.7194 23.5383 14.7158 23.6297 14.7308C23.7211 14.7459 23.8085 14.7792 23.8866 14.8289C24.727 15.3162 25.4272 16.0124 25.9194 16.85C26.4115 17.6876 26.6788 18.6382 26.6954 19.6095C26.7119 20.5809 26.4772 21.54 26.014 22.3939C25.5507 23.2478 24.8747 23.9675 24.0514 24.4832C23.9475 24.5534 23.8264 24.5937 23.7012 24.6V24.6Z" fill="white"/>
<path d="M25.2187 28.6718C25.065 28.6709 24.916 28.6184 24.7956 28.5227C24.6752 28.4271 24.5904 28.2938 24.5548 28.1442C24.5192 27.9946 24.5348 27.8374 24.5992 27.6978C24.6635 27.5581 24.7729 27.4441 24.9097 27.374C26.3502 26.6643 27.5614 25.5629 28.4044 24.1961C29.2474 22.8294 29.6881 21.2527 29.6759 19.6469C29.6638 18.0411 29.1992 16.4713 28.3355 15.1175C27.4718 13.7638 26.244 12.6808 24.793 11.993C24.7093 11.9554 24.6339 11.9014 24.5715 11.8342C24.509 11.7669 24.4606 11.6878 24.4292 11.6016C24.3978 11.5154 24.3841 11.4237 24.3887 11.332C24.3933 11.2404 24.4163 11.1506 24.4562 11.0679C24.4962 10.9853 24.5523 10.9115 24.6212 10.8509C24.6902 10.7903 24.7706 10.7442 24.8577 10.7152C24.9447 10.6862 25.0368 10.675 25.1283 10.6822C25.2198 10.6894 25.3089 10.7148 25.3904 10.7571C27.0759 11.5528 28.5029 12.8074 29.5079 14.3771C30.5129 15.9469 31.0551 17.7681 31.0723 19.6318C31.0895 21.4956 30.581 23.3265 29.6052 24.9145C28.6294 26.5025 27.2257 27.7833 25.5552 28.61C25.45 28.6587 25.3343 28.6799 25.2187 28.6718V28.6718Z" fill="white"/>
<path d="M19.9864 29.2761C19.8052 29.2762 19.6258 29.2405 19.4584 29.171C19.2911 29.1014 19.1391 28.9995 19.0114 28.8709L13.9027 23.7417H10.3733C10.0091 23.7417 9.65978 23.597 9.40223 23.3394C9.14469 23.0819 9 22.7326 9 22.3683V16.8751C9 16.5109 9.14469 16.1616 9.40223 15.9041C9.65978 15.6465 10.0091 15.5018 10.3733 15.5018H13.9576L18.9908 10.4275C19.1804 10.2278 19.4257 10.0898 19.6948 10.0313C19.9638 9.97285 20.2443 9.9966 20.4997 10.0995C20.7551 10.2024 20.9736 10.3797 21.127 10.6084C21.2804 10.8371 21.3615 11.1066 21.3597 11.3819V27.8616C21.3597 28.1339 21.2788 28.4 21.1272 28.6262C20.9756 28.8524 20.7602 29.0284 20.5083 29.1319C20.3456 29.2141 20.1682 29.2631 19.9864 29.2761ZM10.3733 16.8751V22.3683H14.1911C14.2819 22.3687 14.3718 22.3871 14.4555 22.4225C14.5392 22.4578 14.615 22.5095 14.6786 22.5743L19.9864 27.9028V11.3819L14.7335 16.6691C14.67 16.734 14.5941 16.7856 14.5104 16.821C14.4267 16.8564 14.3369 16.8748 14.246 16.8751H10.3733Z" fill="white"/>
</g>
<defs>
<clipPath id="clip0_2406_2422">
<rect width="40" height="40" fill="white"/>
</clipPath>
</defs>
</svg>
