<svg xmlns="http://www.w3.org/2000/svg" xml:space="preserve" viewBox="0 0 300 300" fill="#fff">
	<path d="m153 1-3-1-3 1v6h6l1-3-1-3zm-49 54c-1 2-4 2-5 0l-1-2 1-3 3-1 2 1c2 1 2 4 0 5zm-47 46-1 3c-2 2-5 2-6 0-2-2-2-4 0-6l3-1 3 1 1 3zm146-48-2 2c-1 2-4 2-5 0-2-1-2-4 0-5l3-1 3 1 1 3zm-50 51c-2 2-4 2-6 0v-6l3-1 3 1c2 2 2 5 0 6zm97 0c-1 2-4 2-5 0l-2-3 2-3 2-1 3 1c2 2 2 5 0 6z" class="st0"/>
	<path d="m250 98-3-1-2 1-2 3 2 3c1 2 4 2 5 0 2-1 2-4 0-6zM57 198l-1 3c-2 2-5 2-6 0-2-1-2-4 0-5l3-1 3 1 1 2z" class="st0"/>
	<path d="m56 196-3-2-3 2v5c2 2 4 2 6 0l1-3-1-2zm194 5c-1 2-4 2-5 0l-2-3 2-2 2-2 3 2c2 1 2 4 0 5z" class="st0"/>
	<path d="m250 196-3-2-2 2-2 2c0 2 1 3 2 3 1 2 4 2 5 0 2-1 2-4 0-5zm-97 103h-6v-6l3-1 3 1 1 3-1 3zm143-145H4a4 4 0 0 1 0-8h292c2 0 4 2 4 4s-2 4-4 4zm-97 97-3-1-46-46-46 46h-5c-2-2-2-4 0-6l48-48c2-2 4-2 6 0l48 48c2 2 2 4 0 6l-2 1z" class="st0"/>
</svg>