<svg xmlns="http://www.w3.org/2000/svg" xml:space="preserve" viewBox="0 0 300 300" fill="#fff">
	<path d="M245 104c-2-1-2-4 0-5l2-1 3 1 1 3-1 2c-1 2-4 2-5 0zm-95 99-3-1-1-3v-1l1-2h6l1 2v1l-1 3-3 1zm0-195a4 4 0 0 1-4-3l1-3c2-2 4-2 6 0l1 2v1l-1 2-3 1zm-99 97-1-1v-5l3-1 3 1 1 3-1 2c-2 2-4 2-5 1zm99 195-3-1-48-49c-2-1-2-4 0-5 1-2 4-2 5 0l46 45 46-45c2-2 4-2 6 0v5l-49 49-3 1zm0-194-3-2-48-48c-2-2-2-4 0-6h5l46 46 46-46h6v6l-49 49-3 1zm-97 97-3-1-49-49v-6c2-1 4-1 6 1l46 45 46-45c1-2 4-2 5 0 2 1 2 4 0 5l-48 49-3 1zm194 0-2-1-49-49v-6h6l45 46 46-46h6v6l-49 49-3 1z" class="st2"/>
</svg>