<svg  viewBox="0 0 80 80" fill="none"
  xmlns="http://www.w3.org/2000/svg">
  <path d="M20.211 23.3114L27.8741 30.9881H20.7466C20.0182 30.9881 19.3196 31.2775 18.8045 31.7926C18.2894 32.3077 18 33.0063 18 33.7347V44.7212C18 45.4496 18.2894 46.1482 18.8045 46.6633C19.3196 47.1784 20.0182 47.4678 20.7466 47.4678H27.8054L37.9816 57.7264C38.2487 57.9736 38.5623 58.1652 38.9042 58.2902C39.246 58.4151 39.6093 58.4709 39.9729 58.4542C40.3309 58.4542 40.6854 58.3842 41.0166 58.2482C41.5203 58.0413 41.9512 57.6892 42.2544 57.2369C42.5576 56.7845 42.7195 56.2522 42.7195 55.7076V45.7786L50.8082 53.8674C50.4649 54.0734 50.1353 54.2656 49.7782 54.4442C49.4523 54.6081 49.2048 54.8947 49.0901 55.2411C48.9755 55.5875 49.0032 55.9653 49.1671 56.2913C49.331 56.6172 49.6177 56.8647 49.9641 56.9794C50.3105 57.094 50.6882 57.0663 51.0142 56.9024C51.6315 56.5907 52.232 56.2469 52.8133 55.8724L55.9444 59.0035L57.8258 57.0809L22.1199 21.375L20.211 23.3114ZM39.9729 55.7076L29.3572 45.037C29.0851 44.8099 28.7358 44.6967 28.3822 44.7212H20.7466V33.7347H28.492C28.6737 33.734 28.8535 33.6972 29.0209 33.6265C29.1882 33.5557 29.3399 33.4525 29.4671 33.3227L29.8241 32.9657L39.9729 43.0869V55.7076Z" fill="white"/>
  <path d="M49.4353 23.6963C51.8289 24.8143 53.9301 26.473 55.5733 28.5416C57.2164 30.6103 58.3565 33.0324 58.9038 35.6169C59.451 38.2014 59.3905 40.8777 58.7268 43.4348C58.0632 45.9919 56.8147 48.3599 55.0796 50.3521L57.0297 52.3022C59.0779 49.9985 60.5601 47.2485 61.3582 44.271C62.1563 41.2935 62.2482 38.1709 61.6268 35.1516C61.0053 32.1323 59.6876 29.2998 57.7785 26.8795C55.8694 24.4593 53.4216 22.5181 50.6301 21.2106C50.4671 21.1262 50.2889 21.0752 50.1059 21.0609C49.9229 21.0465 49.7388 21.0689 49.5647 21.1269C49.3905 21.1849 49.2297 21.2771 49.0918 21.3983C48.9539 21.5195 48.8417 21.6671 48.7618 21.8323C48.682 21.9976 48.636 22.1772 48.6268 22.3605C48.6175 22.5439 48.645 22.7272 48.7078 22.8997C48.7706 23.0722 48.8674 23.2303 48.9923 23.3648C49.1173 23.4993 49.2679 23.6073 49.4353 23.6826V23.6963Z" fill="white"/>
  <path d="M46.4144 31.8402C47.707 32.5944 48.7807 33.6724 49.5296 34.968C50.2786 36.2636 50.6769 37.7321 50.6854 39.2285C50.6854 41.0666 50.0877 42.8548 48.9825 44.3235L50.9601 46.2736C52.5661 44.2774 53.4386 41.7906 53.432 39.2285C53.423 37.252 52.899 35.312 51.9117 33.5997C50.9243 31.8875 49.5077 30.4622 47.8015 29.4644C47.6451 29.365 47.4704 29.2983 47.2876 29.2682C47.1048 29.2381 46.9179 29.2454 46.738 29.2894C46.5581 29.3335 46.389 29.4135 46.2408 29.5246C46.0926 29.6357 45.9684 29.7757 45.8757 29.936C45.7831 30.0964 45.7238 30.2738 45.7014 30.4577C45.6791 30.6416 45.6942 30.8281 45.7458 31.0059C45.7974 31.1838 45.8844 31.3494 46.0017 31.4928C46.119 31.6362 46.264 31.7543 46.4282 31.8402H46.4144Z" fill="white"/>
  <path d="M39.9722 22.7488V35.3145L42.7189 38.0611V22.7488C42.7193 22.2044 42.5579 21.6722 42.2553 21.2197C41.9527 20.7672 41.5224 20.4148 41.0191 20.2073C40.5159 19.9999 39.9623 19.9466 39.4287 20.0543C38.8951 20.1621 38.4055 20.4259 38.0222 20.8124L31.7324 27.1022L33.6688 29.0385L39.9722 22.7488Z" fill="white"/>
</svg>
