<svg  style="fill:#fff"  width="75" height="75" xmlns="http://www.w3.org/2000/svg" viewBox="0 0 2356.41 1527.06" xml:space="preserve">
  <g class="logo-shape-arc-small">
    <path d="M1692.38 1100.5c0-75.61-61.44-137.49-137.04-137.49h-15.28v325.64h152.54l-.22-188.15z" class="st0" />
  </g>
  <g class="logo-shape-arc-large">
    <path
      d="M2318.37 990.6c0-420.73-341.11-761.83-761.81-761.83l-16.51-.14v317.84h16.51c252.8 1.28 454.2 204.47 457.06 452.16l-.11 289.37h304.98l-.12-297.4z"
      class="st0" />
  </g>
  <g class="logo-shape-arc-med">
    <path
      d="M1965.59 1003.46c0-218.03-176.98-404.3-410.13-407.82l-15.41-.2v317.24h15.41c102.1 0 185.05 83.53 185.05 185.62l-.44 189.69h225.08l.44-284.53z"
      class="st0" />
  </g>
  <g class="logo-type-the">
    <path class="st0"
      d="M841.85 546.46h-66.27V284.95h-96.16v-56.27H937.8v56.27h-95.95zM1027.69 403.92v142.54h-66.27V228.68h66.27v120.51h123.86V228.68h66.5v317.78h-66.5V403.92zM1474.99 284.89h-166.83v66.82h146.94v56.22h-146.94v82.37h166.72v56.11h-228.59V228.63h228.7z" />
  </g>
  <g class="logo-type-north">
    <path class="st0"
      d="M234.65 595.48h61.87v317.2h-66.27l-129.46-226.2h-.88v226.2H37.92v-317.2h69.79l125.84 220.79h1.1zM479.06 587.02c41.98 0 152.43 18.13 152.43 167.05 0 148.73-110.45 166.97-152.43 166.97S326.52 902.8 326.52 754.07c0-148.92 110.56-167.05 152.54-167.05m0 277.99c35.72 0 86.05-22.14 86.05-110.95 0-88.74-50.33-110.89-86.05-110.89-35.71 0-86.27 22.15-86.27 110.89 0 88.81 50.56 110.95 86.27 110.95M1099.13 912.68h-66.27V651.47H936.8v-56.05h257.94v56.05h-95.61zM1284.87 770.44v142.24h-66.17V595.42h66.17v120.13h123.74V595.42h66.38v317.26h-66.38V770.44zM659.09 595.48h160.45c84.4 0 99.79 62.26 99.79 89.68 0 34.95-17.8 65.01-49.13 75.61 26.16 11.43 40.33 21.15 40.33 80.39 0 46.35 0 57.89 14.07 63.16v8.36h-73.41c-4.28-14.84-7.03-31.33-7.03-63.99 0-43.36-2.53-60.06-51.76-60.06h-68.36v124.05h-64.95v-317.2zm142.87 139.63c34.4 0 51.22-11.98 51.22-43.36 0-16.71-7.69-41.43-46.49-41.43h-82.64v84.79h77.91z" />
  </g>
  <g class="logo-type-face">
    <path class="st0"
      d="M505.66 1288.65h-68.03V963.02h231.68v57.69H505.66v73.42h143.2v57.7h-143.2zM699.86 1288.65H628.2l116.17-325.64h78.47l114.74 325.64H863.5l-20.77-67.15H722.61l-22.75 67.15zm40.99-123.31h82.86l-40.33-128.8h-.77l-41.76 128.8zM1146.39 1070.72c-5.27-19.35-15.94-56.16-71.99-56.16-32.64 0-80.89 21.76-80.89 113.86 0 58.36 23.19 111.11 80.89 111.11 37.59 0 63.96-21.32 71.99-61.22h68.03c-13.63 70.66-59.79 120.12-141.45 120.12-86.6 0-148.8-58.46-148.8-171 0-113.64 65.72-171.77 149.8-171.77 97.37 0 136.83 67.15 140.45 115.07h-68.03zM1476.09 1020.71h-171.01v68.36h150.79v57.7h-150.79v84.4h171.01v57.48h-234.31V963.02h234.31z" />
  </g>
</svg>