<svg xmlns="http://www.w3.org/2000/svg" fill="none" viewBox="0 0 79 28">
  <path fill="#fff" d="m24.519.072-5.437 19.9h-2.024L18.142 16h-2.038l1.09-3.986h-2.026l1.085-3.971h-2.025l1.09-3.985h-2.039L14.367.072H8.294L.684 27.927h4.049l5.432-19.884h2.025l-1.085 3.972h2.039L12.054 16h2.026l-1.085 3.971h2.024l-1.088 3.985h2.038l-1.085 3.971h6.074L28.568.072h-4.05ZM29.528 18.74c.116 2.62.999 4.819 2.648 6.595C33.826 27.11 36.633 28 40.594 28c3.68 0 6.42-.852 8.218-2.555 1.8-1.702 2.7-3.724 2.7-6.066 0-2.341-.86-4.2-2.58-5.33-1.101-.72-3.27-1.464-6.507-2.235l-2.978-.712c-1.3-.31-2.285-.67-2.952-1.079-1.157-.685-1.735-1.598-1.735-2.741 0-1.044.44-1.885 1.32-2.52.88-.637 2.175-.955 3.884-.955 2.564 0 4.366.578 5.406 1.734.636.815.997 1.718 1.08 2.712h4.176c.033-1.703-.507-3.292-1.618-4.765C47.233 1.163 44.337 0 40.32 0c-3.07 0-5.514.77-7.33 2.309-1.818 1.539-2.726 3.553-2.726 6.041 0 2.113.965 3.767 2.896 4.962 1.081.688 2.762 1.31 5.042 1.866l3.57.884c1.913.475 3.194.893 3.843 1.253 1.014.589 1.523 1.449 1.523 2.578 0 1.49-.635 2.591-1.906 3.304-1.27.712-2.74 1.069-4.411 1.069-2.808 0-4.78-.712-5.917-2.137-.618-.787-.994-1.916-1.128-3.39h-4.25l.001.001ZM59.671 11.714c.082-2.274.809-4.148 2.18-5.622 1.373-1.475 3.073-2.212 5.098-2.212 2.826 0 4.843 1.071 6.052 3.213.653 1.153 1.07 2.693 1.25 4.62H59.67ZM67.231 0c-3.701 0-6.697 1.327-8.99 3.979-2.293 2.653-3.438 6.104-3.438 10.355 0 4.25 1.137 7.673 3.413 10.07C60.492 26.802 63.267 28 66.542 28c1.34 0 2.542-.132 3.606-.396 1.978-.46 3.637-1.35 4.979-2.668.8-.758 1.526-1.735 2.177-2.929.65-1.194 1.034-2.277 1.15-3.25h-4.375a7.88 7.88 0 0 1-1.633 3.104c-1.373 1.539-3.212 2.309-5.517 2.309-2.468 0-4.29-.814-5.468-2.442-1.177-1.627-1.806-3.787-1.888-6.48h19.252c0-2.669-.132-4.613-.393-5.832-.296-1.78-.885-3.337-1.768-4.67-.918-1.4-2.252-2.542-4.004-3.424C70.908.442 69.1 0 67.232 0"></path>
  <path fill="#fff" d="M14.98 27.855h5.92L28.47.145h-3.897l-5.436 19.898H16.96l1.085-3.971h-2.039l1.09-3.986H15.07l1.085-3.971H14.13l1.09-3.986h-2.04L14.27.145H8.35L.777 27.855h3.897L10.108 7.97h2.177L11.2 11.941h2.039l-1.09 3.986h2.025l-1.085 3.971h2.024l-1.089 3.986h2.039l-1.085 3.971h.001Zm6.034.145h-6.227l1.085-3.971h-2.038l1.088-3.986h-2.024l1.085-3.971h-2.025l1.09-3.986h-2.04l1.086-3.971h-1.872L4.79 28H.588L8.236 0h6.226l-1.089 3.985h2.039l-1.089 3.986h2.025l-1.085 3.971h2.024l-1.089 3.986h2.04l-1.086 3.971h1.871L24.461 0h4.202l-.025.09L21.014 28Z"></path>
</svg>