<svg  viewBox="0 0 100 40" fill="none" xmlns="http://www.w3.org/2000/svg">
<g clip-path="url(#clip0_2771_8589)">
<path d="M48.083 20.4668H53.3957C55.4799 20.4668 57.4389 21.418 57.4389 24.072C57.4389 26.8481 55.854 27.9293 53.3957 27.9293H50.9977V31.6598H48.083V20.4668ZM50.9977 25.6717H52.9567C53.8664 25.6717 54.5242 25.296 54.5242 24.2765C54.5242 23.2254 53.8506 22.8021 52.9567 22.8021H50.9977V25.6717Z" fill="white"/>
<path d="M61.2135 20.4668H64.1758L68.36 31.6598H65.3201L64.6291 29.6479H60.727L60.0217 31.6535H57.0293L61.2135 20.4668ZM61.4021 27.4902H63.938L62.7002 23.571H62.6685L61.4021 27.4902Z" fill="white"/>
<path d="M71.5387 27.9035C71.6005 29.221 72.4168 29.6475 73.6546 29.6475C74.5311 29.6475 75.4408 29.3304 75.4408 28.5028C75.4408 27.5151 73.8416 27.3264 72.2282 26.873C70.6147 26.4196 68.9521 25.6966 68.9521 23.6435C68.9521 21.1972 71.4135 20.2412 73.5135 20.2412C75.7325 20.2412 77.9799 21.3225 77.9958 23.8464H75.0795C75.127 22.827 74.1713 22.4988 73.2774 22.4988C72.6513 22.4988 71.8684 22.7176 71.8684 23.4501C71.8684 24.3126 73.4819 24.4695 75.1112 24.9245C76.7405 25.3795 78.3555 26.131 78.3555 28.1524C78.3555 30.9903 75.9417 31.9003 73.4819 31.9003C70.9111 31.9003 68.6383 30.7715 68.624 27.9019L71.5387 27.9035Z" fill="white"/>
<path d="M82.2835 27.9035C82.3453 29.221 83.1599 29.6475 84.3994 29.6475C85.2758 29.6475 86.1856 29.3304 86.1856 28.5028C86.1856 27.5151 84.5864 27.3264 82.9729 26.873C81.3595 26.4196 79.6969 25.6966 79.6969 23.6435C79.6969 21.1972 82.1583 20.2412 84.2583 20.2412C86.4772 20.2412 88.7247 21.3225 88.7405 23.8464H85.8242C85.8718 22.827 84.9161 22.4988 84.0222 22.4988C83.3961 22.4988 82.6116 22.7176 82.6116 23.4501C82.6116 24.3126 84.2266 24.4695 85.8559 24.9245C87.4852 25.3795 89.1003 26.131 89.1003 28.1524C89.1003 30.9903 86.6864 31.9003 84.2266 31.9003C81.6558 31.9003 79.383 30.7715 79.3672 27.9019L82.2835 27.9035Z" fill="white"/>
<path d="M59.505 8.1123H64.5879C66.5833 8.1123 68.4567 9.02709 68.4567 11.5622C68.4567 14.2177 66.9431 15.253 64.5879 15.253H62.2866V18.8218H59.4971L59.505 8.1123ZM62.2866 13.0921H64.1615C65.0317 13.0921 65.6609 12.7322 65.6609 11.7572C65.6609 10.752 65.0174 10.3477 64.1615 10.3477H62.2866V13.0921Z" fill="white"/>
<path d="M69.8018 8.1123H72.5897V16.423H77.5838V18.8218H69.8018V8.1123Z" fill="white"/>
<path d="M78.918 8.1123H84.3765C86.2673 8.1123 88.1265 8.96684 88.1265 11.1246C88.1265 12.2788 87.5717 13.3743 86.4464 13.8087V13.8388C87.586 14.1083 87.9157 15.3846 88.006 16.404C88.0361 16.8543 88.0805 18.4286 88.4561 18.8186H85.6967C85.4558 18.4587 85.4115 17.4092 85.3798 17.1095C85.3053 16.0299 85.1246 14.9185 83.8202 14.9185H81.7075V18.8186H78.918V8.1123ZM81.7075 12.7623H84.0468C84.8868 12.7623 85.337 12.3121 85.337 11.494C85.337 10.6759 84.703 10.3398 83.9264 10.3398H81.7075V12.7623Z" fill="white"/>
<path d="M58.2839 8.10449H54.9999L53.0441 11.0153L51.0867 8.10449H47.8027L51.3752 13.4981L47.8027 18.814H51.1913L53.0441 16.0173L54.8953 18.814H58.2839L54.7115 13.4981L58.2839 8.10449Z" fill="white"/>
<path d="M99.999 40H36.9043V0H99.999V40ZM40.0742 36.8292H96.8292V3.17083H40.0742V36.8292Z" fill="white"/>
<path d="M39.987 40H-0.000976562V0H39.987V40ZM3.1689 36.8292H36.8171V3.17083H3.1689V36.8292Z" fill="white"/>
<path d="M16.4697 17.8112H15.7787V15.0843H14.7754V14.4961H17.4698V15.0843H16.4697V17.8112Z" fill="white"/>
<path d="M18.4069 16.3241V17.8112H17.7158V14.4961H18.4069V15.7533H19.6986V14.4961H20.3928V17.8112H19.6986V16.3241H18.4069Z" fill="white"/>
<path d="M23.0709 15.0827H21.3306V15.7803H22.8632V16.3669H21.3306V17.2246H23.0693V17.8096H20.6855V14.4961H23.0709V15.0827Z" fill="white"/>
<path d="M10.1394 18.3213H10.7845V21.63H10.0934L8.74308 19.271H8.73357V21.63H8.08691V18.3213H8.8144L10.1267 20.6249H10.1394V18.3213Z" fill="white"/>
<path d="M12.6865 18.2314C13.1239 18.2314 14.2714 18.4201 14.2714 19.9754C14.2714 21.5307 13.1192 21.7194 12.6865 21.7194C12.2538 21.7194 11.1016 21.5291 11.1016 19.9754C11.1016 18.4217 12.2538 18.2314 12.6865 18.2314ZM12.6865 21.1296C13.059 21.1296 13.5836 20.8997 13.5836 19.9738C13.5836 19.0479 13.059 18.8165 12.6865 18.8165C12.314 18.8165 11.7878 19.0479 11.7878 19.9738C11.7878 20.8997 12.314 21.1296 12.6865 21.1296Z" fill="white"/>
<path d="M19.1521 21.63H18.461V18.9063H17.4609V18.3213H20.149V18.9063H19.1521V21.63Z" fill="white"/>
<path d="M21.0879 20.1461V21.63H20.3984V18.3213H21.0879V19.5738H22.378V18.3213H23.0706V21.63H22.378V20.1461H21.0879Z" fill="white"/>
<path d="M14.5645 18.3213H16.2366C17.1162 18.3213 17.2779 18.9713 17.2779 19.2567C17.2886 19.4264 17.2445 19.5952 17.152 19.7379C17.0596 19.8806 16.9236 19.9899 16.7643 20.0494C17.037 20.1683 17.1859 20.2698 17.1859 20.8865C17.1859 21.37 17.1859 21.4905 17.3318 21.546V21.6332H16.5662C16.5088 21.4156 16.4842 21.1906 16.4933 20.9658C16.4933 20.5139 16.4664 20.3395 15.9544 20.3395H15.2412V21.6332H14.5645V18.3213ZM16.0527 19.7783C16.4125 19.7783 16.5868 19.653 16.5868 19.3264C16.5868 19.152 16.5076 18.8936 16.1018 18.8936H15.2412V19.7783H16.0527Z" fill="white"/>
<path d="M12.9643 25.5503H12.2559V22.1543H14.6713V22.7568H12.9643V23.5225H14.4573V24.1234H12.9643V25.5503Z" fill="white"/>
<path d="M14.9893 25.5503H14.2412L15.4537 22.1543H16.2715L17.4681 25.5503H16.6947L16.4823 24.8495H15.2255L14.9893 25.5503ZM15.4156 24.2645H16.281L15.8594 22.9216L15.4156 24.2645Z" fill="white"/>
<path d="M19.6521 23.2784C19.6265 23.103 19.5343 22.9442 19.3947 22.8349C19.2551 22.7257 19.0788 22.6745 18.9025 22.6918C18.5617 22.6918 18.0593 22.9185 18.0593 23.8793C18.0593 24.4881 18.3002 25.0382 18.9025 25.0382C19.0843 25.0464 19.2625 24.9856 19.4015 24.868C19.5405 24.7505 19.63 24.5848 19.6521 24.4041H20.3622C20.2195 25.1413 19.7377 25.6581 18.8866 25.6581C17.9848 25.6581 17.335 25.0477 17.335 23.8745C17.335 22.7013 18.0212 22.083 18.8977 22.083C19.9121 22.083 20.3242 22.7822 20.3622 23.2832L19.6521 23.2784Z" fill="white"/>
<path d="M23.082 22.7568H21.299V23.4686H22.8712V24.0711H21.299V24.951H23.082V25.5503H20.6396V22.1543H23.082V22.7568Z" fill="white"/>
<path d="M25.3369 23.588C25.3369 23.2096 25.1866 22.8466 24.9191 22.5791C24.6516 22.3115 24.2888 22.1611 23.9104 22.1611H23.752V25.5571H25.3369V23.588Z" fill="white"/>
<path d="M31.8639 22.4416C31.8635 20.3344 31.0264 18.3137 29.5367 16.8239C28.047 15.334 26.0267 14.4971 23.9202 14.4971H23.749V17.8122H23.9202C25.1739 17.8154 26.3761 18.3113 27.2677 19.193C28.1592 20.0748 28.6686 21.2716 28.6861 22.5256V25.5379H31.8671L31.8639 22.4416Z" fill="white"/>
<path d="M28.1859 22.5759C28.1754 21.4464 27.7204 20.3664 26.9194 19.5702C26.1183 18.7739 25.0358 18.3256 23.9065 18.3223H23.748V21.631H23.9065C24.4181 21.6331 24.9081 21.8378 25.2693 22.2002C25.6304 22.5627 25.8334 23.0535 25.8338 23.5652V25.5438H28.1795L28.1859 22.5759Z" fill="white"/>
</g>
<defs>
<clipPath id="clip0_2771_8589">
<rect width="100" height="40" fill="white"/>
</clipPath>
</defs>
</svg>
