<svg width="98" height="98" viewBox="0 0 98 98" fill="none" xmlns="http://www.w3.org/2000/svg">
<circle cx="49" cy="49" r="48" stroke="black" stroke-width="2"/>
<g clip-path="url(#clip0_3626_11644)">
<path d="M47.1395 50.3273H50.9116C52.3925 50.3273 53.7833 50.9932 53.7833 52.851C53.7833 54.7931 52.658 55.5511 50.9116 55.5511H49.209V58.1624H47.1395V50.3273ZM49.209 53.9707H50.601C51.2458 53.9707 51.7128 53.7066 51.7128 52.993C51.7128 52.2583 51.2345 51.962 50.601 51.962H49.209V53.9707ZM56.4627 50.3273H58.5659L61.5367 58.1624H59.3783L58.8888 56.7574H56.1183L55.6176 58.1624H53.4919L56.4627 50.3273ZM56.5966 55.2437H58.3971L57.5182 52.4992H57.4957L56.5966 55.2437ZM63.7929 55.5289C63.8379 56.4511 64.4163 56.7497 65.2952 56.7497C65.9186 56.7497 66.5634 56.5277 66.5634 55.9484C66.5634 55.2581 65.4291 55.126 64.2824 54.8075C63.1357 54.489 61.9587 53.9807 61.9587 52.5436C61.9587 50.8323 63.7051 50.1619 65.1962 50.1619C66.7716 50.1619 68.3673 50.9188 68.3785 52.6867H66.308C66.3417 51.9731 65.6632 51.7423 65.0285 51.7423C64.5784 51.7423 64.027 51.8965 64.027 52.4082C64.027 53.0108 65.1725 53.1206 66.3305 53.4392C67.4884 53.7577 68.634 54.2837 68.634 55.6998C68.634 57.6863 66.9201 58.3222 65.1725 58.3222C63.3484 58.3222 61.7347 57.5321 61.7235 55.5245L63.7929 55.5289ZM71.4225 55.5289C71.4675 56.4511 72.0459 56.7497 72.9248 56.7497C73.5482 56.7497 74.193 56.5277 74.193 55.9484C74.193 55.2581 73.0587 55.126 71.912 54.8075C70.7653 54.489 69.5871 53.9841 69.5871 52.5469C69.5871 50.8356 71.3336 50.1653 72.8246 50.1653C74.4 50.1653 75.9957 50.9222 76.007 52.6901H73.9375C73.9702 51.9765 73.2916 51.7456 72.6581 51.7456C72.208 51.7456 71.6565 51.8999 71.6565 52.4115C71.6565 53.0141 72.8021 53.124 73.9601 53.4425C75.118 53.761 76.2635 54.287 76.2635 55.7031C76.2635 57.6896 74.5497 58.3256 72.8021 58.3256C70.978 58.3256 69.3643 57.5354 69.3531 55.5278L71.4225 55.5289ZM55.2496 41.6787H58.8596C60.2752 41.6787 61.6064 42.3191 61.6064 44.0936C61.6064 45.9525 60.5307 46.6772 58.8585 46.6772H57.2324V49.1765H55.2519L55.2496 41.6787ZM57.2324 45.1657H58.5636C59.1803 45.1657 59.6282 44.9137 59.6282 44.2301C59.6282 43.5265 59.1702 43.2435 58.5636 43.2435H57.2324V45.1657ZM62.5607 41.6787H64.5469V47.4962H68.0927V49.1765H62.5675L62.5607 41.6787ZM69.0335 41.6787H72.909C74.2504 41.6787 75.5704 42.2769 75.5704 43.7873C75.5704 44.5963 75.1765 45.3621 74.3775 45.6673V45.6884C75.1866 45.877 75.4218 46.7693 75.4848 47.4829C75.5062 47.7981 75.5388 48.9012 75.8044 49.1742H73.8453C73.6753 48.9223 73.6427 48.1865 73.6202 47.9768C73.5662 47.221 73.439 46.4441 72.5129 46.4441H71.0129V49.1742H69.0335V41.6787ZM71.0129 44.9337H72.6738C73.2702 44.9337 73.5898 44.6197 73.5898 44.0526C73.5898 43.4855 73.1397 43.2435 72.5894 43.2435H71.014L71.0129 44.9337Z" fill="black"/>
<path d="M54.382 41.6733H52.0503L50.6617 43.7109L49.2719 41.6733H46.9403L49.4767 45.4488L46.9403 49.17H49.3462L50.6617 47.2123L51.976 49.17H54.382L51.8455 45.4488L54.382 41.6733Z" fill="black"/>
<path d="M84.0012 64H39.2028V36H84.0012V64ZM41.4545 61.7804H81.7494V38.2207H41.4545V61.7804Z" fill="black"/>
<path d="M41.3915 64H13V36H41.3915V64ZM15.2517 61.7804H39.1408V38.2207H15.2517V61.7804Z" fill="black"/>
<path d="M24.6942 48.4673H24.2035V46.5585H23.4912V46.1467H25.4042V46.5585H24.6942V48.4673ZM26.0693 47.4263V48.4673H25.5787V46.1467H26.0693V47.0268H26.9864V46.1467H27.4793V48.4673H26.9864V47.4263H26.0693ZM29.3811 46.5574H28.1455V47.0457H29.2337V47.4563H28.1455V48.0567H29.3799V48.4662H27.6875V46.1467H29.3811V46.5574ZM20.1997 48.8247H20.6577V51.1408H20.1671L19.2083 49.4894H19.2016V51.1408H18.7424V48.8247H19.2589L20.1907 50.4372H20.1997V48.8247Z" fill="black"/>
<path d="M22.0103 48.7637C22.3209 48.7637 23.1356 48.8957 23.1356 49.9844C23.1356 51.0731 22.3175 51.2052 22.0103 51.2052C21.7031 51.2052 20.885 51.072 20.885 49.9844C20.885 48.8968 21.7042 48.7637 22.0103 48.7637ZM22.0103 50.7935C22.2748 50.7935 22.6472 50.6314 22.6472 49.9833C22.6472 49.3352 22.2748 49.1743 22.0103 49.1743C21.7459 49.1743 21.3711 49.3352 21.3711 49.9833C21.3711 50.6314 21.7459 50.7935 22.0103 50.7935Z" fill="black"/>
<path d="M26.5982 51.1408H26.1075V49.2342H25.3975V48.8247H27.306V49.2342H26.5982V51.1408ZM27.9733 50.1021V51.1408H27.4838V48.8247H27.9733V49.7014H28.8893V48.8247H29.381V51.1408H28.8893V50.1021H27.9733Z" fill="black"/>
<path d="M23.3416 48.8259H24.5299C25.1544 48.8259 25.2681 49.2798 25.2681 49.4807C25.2758 49.5994 25.2446 49.7174 25.1792 49.8173C25.1137 49.9172 25.0175 49.9937 24.9046 50.0356C25.0982 50.1188 25.2028 50.1899 25.2028 50.6227C25.2028 50.9556 25.2028 51.0455 25.3075 51.0832V51.1443H24.7639C24.7226 50.992 24.7047 50.8345 24.7111 50.6771C24.7111 50.3608 24.693 50.2331 24.3284 50.2331H23.8221V51.1387H23.3416V48.8259ZM24.3993 49.8447C24.6537 49.8447 24.7786 49.757 24.7786 49.5284C24.7786 49.4063 24.7212 49.2266 24.4342 49.2266H23.8221V49.8447H24.3993Z" fill="black"/>
<path d="M22.205 53.8855H21.702V51.5083H23.417V51.93H22.205V52.466H23.2651V52.8867H22.205V53.8855Z" fill="black"/>
<path d="M23.6432 53.8866H23.1132L23.9729 51.5094H24.5536L25.4032 53.8866H24.8551L24.701 53.396H23.8108L23.6432 53.8866ZM23.947 52.9865H24.5603L24.261 52.0454L23.947 52.9865ZM26.9493 52.2984C26.9099 52.1575 26.8312 51.8889 26.4159 51.8889C26.174 51.8889 25.8173 52.0476 25.8173 52.7202C25.8173 53.1463 25.9894 53.5314 26.4159 53.5314C26.5452 53.5371 26.6718 53.4946 26.7707 53.4124C26.8695 53.3301 26.9333 53.2141 26.9493 53.0875H27.4523C27.3511 53.6036 27.0101 53.9642 26.4058 53.9642C25.7644 53.9642 25.3041 53.537 25.3041 52.7157C25.3041 51.8945 25.7903 51.4617 26.4126 51.4617C27.1339 51.4617 27.4253 51.9522 27.4523 52.3018L26.9493 52.2984Z" fill="black"/>
<path d="M29.389 51.93H28.123V52.4283H29.2393V52.85H28.123V53.466H29.389V53.8855H27.6549V51.5083H29.389V51.93Z" fill="black"/>
<path d="M30.9903 52.5126C30.9903 52.2477 30.8836 51.9936 30.6937 51.8063C30.5037 51.619 30.2461 51.5138 29.9775 51.5138H29.865V53.891H30.9903V52.5126ZM35.6266 51.7102C35.6266 50.2352 35.0325 48.8206 33.975 47.7775C32.9176 46.7344 31.4833 46.1482 29.9877 46.1479H29.865V48.4674H29.9877C30.8781 48.4699 31.7318 48.8175 32.3648 49.4351C32.9978 50.0527 33.3593 50.891 33.3714 51.769V53.8776H35.6266V51.7102Z" fill="black"/>
<path d="M33.0135 51.8045C33.0061 51.0138 32.683 50.2578 32.1143 49.7004C31.5456 49.1431 30.777 48.8292 29.9752 48.8269H29.8627V51.1419H29.9752C30.3397 51.1419 30.6893 51.2847 30.9472 51.5388C31.205 51.7928 31.35 52.1375 31.3503 52.497V53.8809H33.0169L33.0135 51.8045Z" fill="black"/>
</g>
<defs>
<clipPath id="clip0_3626_11644">
<rect width="71" height="28" fill="white" transform="translate(13 36)"/>
</clipPath>
</defs>
</svg>
