<svg  viewBox="0 0 202 109" fill="none" xmlns="http://www.w3.org/2000/svg">
<path d="M12.2155 91.6322V94.1981H2.9707V98.6411H11.5263V101.065H2.9707V106.03H12.3819V108.596H0V91.6322H12.2155Z" fill="white"/>
<path d="M26.3057 91.6322L30.1558 97.6194L34.1721 91.6322H37.4993L31.8906 99.8053L37.9033 108.596H34.291L30.0607 102.11L25.7591 108.596H22.3606L28.3733 99.8053L22.7647 91.6322H26.3057Z" fill="white"/>
<path d="M56.1419 91.2283C58.1541 91.2283 59.8098 91.7589 61.109 92.8201C62.424 93.8814 63.1686 95.2831 63.3429 97.0255H60.3722C59.786 94.7763 58.3759 93.6517 56.1419 93.6517C54.5417 93.6517 53.2822 94.2457 52.3632 95.4336C51.4443 96.6216 50.9848 98.1817 50.9848 100.114C50.9848 102.094 51.4601 103.67 52.4107 104.842C53.3614 105.998 54.6051 106.577 56.1419 106.577C57.3619 106.577 58.3442 106.181 59.0889 105.389C59.8494 104.597 60.3088 103.512 60.4673 102.134H63.3667C63.2082 104.177 62.4874 105.832 61.204 107.099C59.9207 108.366 58.2333 109 56.1419 109C53.7812 109 51.8325 108.176 50.2956 106.529C48.7746 104.866 48.0141 102.728 48.0141 100.114C48.0141 97.5165 48.7667 95.3861 50.2718 93.723C51.777 92.0598 53.7337 91.2283 56.1419 91.2283Z" fill="white"/>
<path d="M78.3076 91.6322V106.03H86.9345V108.596H75.3369V91.6322H78.3076Z" fill="white"/>
<path d="M101.033 91.6322V101.658C101.033 103.417 101.35 104.652 101.983 105.365C102.617 106.078 103.631 106.434 105.025 106.434C106.42 106.434 107.434 106.086 108.067 105.389C108.701 104.692 109.018 103.472 109.018 101.73V91.6322H111.989V102.609C111.989 104.636 111.363 106.212 110.111 107.337C108.875 108.446 107.18 109 105.025 109C102.886 109 101.191 108.438 99.9395 107.313C98.6879 106.189 98.062 104.62 98.062 102.609V91.6322H101.033Z" fill="white"/>
<path d="M130.494 91.2283C132.427 91.2283 133.996 91.7272 135.2 92.7251C136.404 93.7071 137.006 95.0139 137.006 96.6453H134.036V96.6216C133.845 94.6416 132.625 93.6517 130.376 93.6517C129.473 93.6517 128.728 93.8418 128.142 94.2219C127.555 94.6021 127.262 95.1485 127.262 95.8613C127.262 96.97 127.983 97.7145 129.425 98.0946L133.964 99.2826C134.994 99.5518 135.834 100.09 136.483 100.898C137.149 101.69 137.482 102.617 137.482 103.678C137.482 105.278 136.872 106.569 135.652 107.551C134.447 108.517 132.808 109 130.732 109C128.593 109 126.882 108.469 125.599 107.408C124.331 106.347 123.682 104.858 123.65 102.941H126.621C126.637 104.161 127.033 105.072 127.809 105.674C128.585 106.276 129.623 106.577 130.922 106.577C132.063 106.577 132.942 106.339 133.56 105.864C134.194 105.389 134.511 104.771 134.511 104.011C134.511 102.918 134.043 102.221 133.109 101.92C132.475 101.714 130.859 101.27 128.261 100.589C125.615 99.9399 124.292 98.4827 124.292 96.2177C124.292 94.6971 124.87 93.4854 126.027 92.5825C127.183 91.6797 128.672 91.2283 130.494 91.2283Z" fill="white"/>
<path d="M152.322 91.6322V108.596H149.351V91.6322H152.322Z" fill="white"/>
<path d="M166.399 91.6322L170.653 105.056H170.7L175.049 91.6322H178.067L172.269 108.596H168.965L163.309 91.6322H166.399Z" fill="white"/>
<path d="M201.247 91.6322V94.1981H192.002V98.6411H200.557V101.065H192.002V106.03H201.413V108.596H189.031V91.6322H201.247Z" fill="white"/>
<g clip-path="url(#clip0_2853_21292)">
<path d="M96.8468 41.222H107.547C111.745 41.222 115.691 43.138 115.691 48.4835C115.691 54.0748 112.498 56.2526 107.547 56.2526H102.717V63.7663H96.8468V41.222ZM102.717 51.7054H106.663C108.495 51.7054 109.82 50.9486 109.82 48.8954C109.82 46.7783 108.463 45.9257 106.663 45.9257H102.717V51.7054Z" fill="white"/>
<path d="M123.295 41.222H129.261L137.689 63.7663H131.566L130.174 59.714H122.315L120.894 63.7535H114.867L123.295 41.222ZM123.675 55.3681H128.782L126.289 47.4744H126.225L123.675 55.3681Z" fill="white"/>
<path d="M144.09 56.2014C144.214 58.855 145.858 59.714 148.352 59.714C150.117 59.714 151.949 59.0753 151.949 57.4085C151.949 55.4191 148.728 55.0391 145.479 54.1258C142.229 53.2126 138.88 51.7565 138.88 47.6212C138.88 42.6941 143.838 40.7686 148.068 40.7686C152.537 40.7686 157.063 42.9463 157.095 48.03H151.221C151.317 45.9767 149.392 45.3157 147.592 45.3157C146.331 45.3157 144.754 45.7564 144.754 47.2317C144.754 48.9688 148.004 49.2849 151.285 50.2014C154.567 51.1178 157.82 52.6314 157.82 56.7028C157.82 62.4187 152.958 64.2516 148.004 64.2516C142.826 64.2516 138.248 61.978 138.219 56.1982L144.09 56.2014Z" fill="white"/>
<path d="M165.733 56.2014C165.857 58.855 167.498 59.714 169.994 59.714C171.76 59.714 173.592 59.0753 173.592 57.4085C173.592 55.4191 170.371 55.0391 167.121 54.1258C163.872 53.2126 160.523 51.7565 160.523 47.6212C160.523 42.6941 165.481 40.7686 169.71 40.7686C174.18 40.7686 178.706 42.9463 178.738 48.03H172.864C172.96 45.9767 171.035 45.3157 169.235 45.3157C167.974 45.3157 166.394 45.7564 166.394 47.2317C166.394 48.9688 169.647 49.2849 172.928 50.2014C176.21 51.1178 179.463 52.6314 179.463 56.7028C179.463 62.4187 174.601 64.2516 169.647 64.2516C164.469 64.2516 159.891 61.978 159.859 56.1982L165.733 56.2014Z" fill="white"/>
<path d="M119.854 16.3394H130.091C134.111 16.3394 137.884 18.1819 137.884 23.2878C137.884 28.6365 134.835 30.7217 130.091 30.7217H125.456V37.9096H119.838L119.854 16.3394ZM125.456 26.3693H129.233C130.985 26.3693 132.253 25.6444 132.253 23.6806C132.253 21.6561 130.957 20.8418 129.233 20.8418H125.456V26.3693Z" fill="white"/>
<path d="M140.591 16.3394H146.206V33.0783H156.265V37.9096H140.591V16.3394Z" fill="white"/>
<path d="M158.953 16.3394H169.947C173.756 16.3394 177.5 18.0605 177.5 22.4065C177.5 24.7312 176.383 26.9377 174.116 27.8126V27.8733C176.412 28.4162 177.076 30.9867 177.257 33.04C177.318 33.9468 177.408 37.1177 178.164 37.9032H172.606C172.121 37.1784 172.032 35.0645 171.968 34.4609C171.818 32.2863 171.454 30.0479 168.827 30.0479H164.571V37.9032H158.953V16.3394ZM164.571 25.7051H169.283C170.975 25.7051 171.882 24.7982 171.882 23.1505C171.882 21.5028 170.605 20.8258 169.041 20.8258H164.571V25.7051Z" fill="white"/>
<path d="M117.393 16.3231H110.778L106.839 22.1859L102.897 16.3231H96.2822L103.478 27.1865L96.2822 37.8934H103.107L106.839 32.2605L110.568 37.8934H117.393L110.197 27.1865L117.393 16.3231Z" fill="white"/>
<path d="M201.414 80.5652H74.3325V0H201.414V80.5652ZM80.7171 74.1788H195.029V6.38646H80.7171V74.1788Z" fill="white"/>
<path d="M80.5411 80.5652H0.00012207V0H80.5411V80.5652ZM6.38466 74.1788H74.1565V6.38646H6.38466V74.1788Z" fill="white"/>
<path d="M33.1745 35.8731H31.7827V30.3807H29.762V29.196H35.1888V30.3807H33.1745V35.8731Z" fill="white"/>
<path d="M37.0754 32.8778V35.8731H35.6836V29.196H37.0754V31.7283H39.6771V29.196H41.0753V35.8731H39.6771V32.8778H37.0754Z" fill="white"/>
<path d="M46.4698 30.3775H42.9647V31.7826H46.0516V32.9641H42.9647V34.6916H46.4666V35.8699H41.6654V29.196H46.4698V30.3775Z" fill="white"/>
<path d="M20.4237 36.9019H21.7229V43.5661H20.3311L17.6113 38.8146H17.5921V43.5661H16.2897V36.9019H17.7549L20.3981 41.5416H20.4237V36.9019Z" fill="white"/>
<path d="M25.554 36.7213C26.435 36.7213 28.7462 37.1013 28.7462 40.2339C28.7462 43.3664 26.4255 43.7464 25.554 43.7464C24.6825 43.7464 22.3617 43.3632 22.3617 40.2339C22.3617 37.1045 24.6825 36.7213 25.554 36.7213ZM25.554 42.5585C26.3041 42.5585 27.3608 42.0955 27.3608 40.2307C27.3608 38.3658 26.3041 37.8996 25.554 37.8996C24.8038 37.8996 23.7439 38.3658 23.7439 40.2307C23.7439 42.0955 24.8038 42.5585 25.554 42.5585Z" fill="white"/>
<path d="M38.5761 43.5661H37.1842V38.0802H35.1699V36.9019H40.584V38.0802H38.5761V43.5661Z" fill="white"/>
<path d="M42.4766 40.5773V43.5661H41.088V36.9019H42.4766V39.4245H45.0752V36.9019H46.4702V43.5661H45.0752V40.5773H42.4766Z" fill="white"/>
<path d="M29.3374 36.9019H32.7052C34.477 36.9019 34.8026 38.2111 34.8026 38.7859C34.8242 39.1278 34.7354 39.4676 34.5491 39.7551C34.3629 40.0426 34.0891 40.2626 33.7683 40.3825C34.3173 40.622 34.6174 40.8263 34.6174 42.0685C34.6174 43.0424 34.6174 43.2851 34.9111 43.3969V43.5725H33.3692C33.2536 43.1342 33.2041 42.6811 33.2224 42.2282C33.2224 41.3181 33.1681 40.9668 32.137 40.9668H30.7005V43.5725H29.3374V36.9019ZM32.3349 39.8364C33.0596 39.8364 33.4107 39.5842 33.4107 38.9264C33.4107 38.5751 33.2511 38.0546 32.4339 38.0546H30.7005V39.8364H32.3349Z" fill="white"/>
<path d="M26.1131 51.4614H24.6862V44.6215H29.5512V45.8349H26.1131V47.3772H29.1202V48.5875H26.1131V51.4614Z" fill="white"/>
<path d="M30.1928 51.4614H28.686L31.1281 44.6215H32.7753L35.1855 51.4614H33.6277L33.1999 50.05H30.6684L30.1928 51.4614ZM31.0515 48.8716H32.7945L31.9453 46.167L31.0515 48.8716Z" fill="white"/>
<path d="M39.5847 46.8856C39.5331 46.5323 39.3474 46.2124 39.0662 45.9924C38.7851 45.7724 38.43 45.6692 38.0748 45.7041C37.3884 45.7041 36.3765 46.1607 36.3765 48.0958C36.3765 49.322 36.8617 50.4301 38.0748 50.4301C38.441 50.4465 38.7999 50.3241 39.0798 50.0873C39.3597 49.8505 39.54 49.5168 39.5847 49.1528H41.0148C40.7275 50.6376 39.7571 51.6786 38.0428 51.6786C36.2264 51.6786 34.9176 50.4492 34.9176 48.0863C34.9176 45.7233 36.2999 44.4779 38.0652 44.4779C40.1082 44.4779 40.9382 45.8861 41.0148 46.8952L39.5847 46.8856Z" fill="white"/>
<path d="M46.492 45.8349H42.9007V47.2686H46.0675V48.4821H42.9007V50.2543H46.492V51.4614H41.5728V44.6215H46.492V45.8349Z" fill="white"/>
<path d="M51.0349 47.5092C51.0349 46.747 50.7322 46.016 50.1934 45.477C49.6546 44.938 48.9239 44.6353 48.1619 44.6353H47.8427V51.4752H51.0349V47.5092Z" fill="white"/>
<path d="M64.1801 45.1996C64.1793 40.9555 62.4932 36.8856 59.4928 33.8848C56.4924 30.8841 52.4233 29.1984 48.1805 29.1984H47.8357V35.8754H48.1805C50.7056 35.8819 53.1271 36.8807 54.9227 38.6566C56.7184 40.4325 57.7444 42.8432 57.7796 45.3689V51.436H64.1865L64.1801 45.1996Z" fill="white"/>
<path d="M56.7717 45.4716C56.7507 43.1965 55.8342 41.0213 54.2208 39.4176C52.6074 37.8139 50.4271 36.9108 48.1526 36.9042H47.8334V43.5684H48.1526C49.183 43.5727 50.1699 43.9849 50.8973 44.7149C51.6247 45.445 52.0336 46.4334 52.0344 47.4642V51.4493H56.759L56.7717 45.4716Z" fill="white"/>
</g>
<defs>
<clipPath id="clip0_2853_21292">
<rect width="201.413" height="80.5652" fill="white"/>
</clipPath>
</defs>
</svg>
